<?xml version="1.0" encoding="iso-8859-1"?>
<!-- Generator: Adobe Illustrator 19.0.0, SVG Export Plug-In . SVG Version: 6.00 Build 0)  -->
<svg version="1.1" id="Layer_1" xmlns="http://www.w3.org/2000/svg" xmlns:xlink="http://www.w3.org/1999/xlink" x="0px" y="0px"
	 viewBox="0 0 512 512" style="enable-background:new 0 0 512 512;" xml:space="preserve">
<g>
	<g>
		<path d="M437.02,74.98C388.667,26.628,324.38,0,256,0S123.333,26.628,74.98,74.98C26.628,123.333,0,187.619,0,256
			s26.628,132.667,74.98,181.02C123.333,485.372,187.62,512,256,512s132.667-26.628,181.02-74.98
			C485.372,388.667,512,324.381,512,256S485.372,123.333,437.02,74.98z M256,478.609c-122.746,0-222.609-99.862-222.609-222.609
			c0-55.377,20.331-106.092,53.914-145.085l84.412,84.412h-3.188l-11.115,34.562l-10.81-34.562h-23.142l17.967,50.245
			l-10.659,29.082l-27.406-79.478H76.412l43.089,108.103h20.86l17.205-42.328l17.053,42.328h21.012l23.951-60.087l23.583,23.583
			l-14.035,36.503h26.493l6.096-17.95l139.367,139.367C362.092,458.278,311.377,478.609,256,478.609z M173.402,245.571l12.869-35.69
			l15.12,15.118l-17.026,49.653L173.402,245.571z M272.106,248.496l8.638-26.828l12.485,40.196h-7.755L272.106,248.496z
			 M424.695,401.085l-97.806-97.806h5.471l-41.414-108.103h-20.251l-14.416,37.493l-23.24-23.239l5.681-14.253h-19.933
			L110.916,87.305C149.908,53.722,200.623,33.391,256,33.391c122.746,0,222.609,99.862,222.609,222.609
			C478.609,311.377,458.278,362.092,424.695,401.085z"/>
	</g>
</g>
<g>
	<g>
		<path d="M408.641,263.081c10.81-5.938,17.662-18.118,17.662-31.366c0-17.967-14.922-36.541-35.324-36.541h-48.722v108.103h24.97
			V268.41h16.292l21.773,34.867h28.168L408.641,263.081z M390.065,246.638h-22.84V217.1h22.077c5.634,0,11.571,5.786,11.571,14.616
			C400.875,240.395,396.003,246.638,390.065,246.638z"/>
	</g>
</g>
<g>
</g>
<g>
</g>
<g>
</g>
<g>
</g>
<g>
</g>
<g>
</g>
<g>
</g>
<g>
</g>
<g>
</g>
<g>
</g>
<g>
</g>
<g>
</g>
<g>
</g>
<g>
</g>
<g>
</g>
</svg>
